<svg width="690" height="337" viewBox="0 0 690 337" fill="none" xmlns="http://www.w3.org/2000/svg">
<rect width="690" height="337" fill="white"/>
<path d="M673.258 121.458C585.766 35.8909 467.758 36.9583 405.258 108.458C342.758 179.958 289.329 240.002 167.758 242.458C99.5334 244.296 65.8242 247.441 81.7584 288.458" stroke="#B9C9BE" stroke-width="8" stroke-linecap="round" stroke-linejoin="round"/>
<path d="M647.258 31C633.421 65.0524 622.002 68.7913 599.258 65.5C604.26 44.4133 612.273 35.476 647.258 31Z" fill="#B9C9BE" stroke="#B9C9BE" stroke-width="8" stroke-linecap="round" stroke-linejoin="round"/>
<path d="M536.135 56.8434C531.526 93.3096 521.453 99.8609 498.628 102.532C498.036 80.8685 503.479 70.1704 536.135 56.8434Z" fill="#B9C9BE" stroke="#B9C9BE" stroke-width="8" stroke-linecap="round" stroke-linejoin="round"/>
<path d="M26 229.841C62.7197 228.199 70.8843 237.015 77.3877 259.056C56.1382 263.313 44.6719 259.763 26 229.841Z" fill="#B9C9BE" stroke="#B9C9BE" stroke-width="8" stroke-linecap="round" stroke-linejoin="round"/>
<path d="M181.135 191.843C176.526 228.31 166.453 234.861 143.628 237.532C143.036 215.869 148.48 205.17 181.135 191.843Z" fill="#B9C9BE" stroke="#B9C9BE" stroke-width="8" stroke-linecap="round" stroke-linejoin="round"/>
<path d="M308.555 155.015C314.761 191.243 307.032 200.444 285.974 209.644C279.101 189.091 281.194 177.272 308.555 155.015Z" fill="#B9C9BE" stroke="#B9C9BE" stroke-width="8" stroke-linecap="round" stroke-linejoin="round"/>
<path d="M418.334 36.8047C436.624 68.6877 432.531 79.985 415.922 95.8677C402.399 78.9331 400.298 67.1149 418.334 36.8047Z" fill="#B9C9BE" stroke="#B9C9BE" stroke-width="8" stroke-linecap="round" stroke-linejoin="round"/>
<path d="M237.135 238.843C232.526 275.31 222.453 281.861 199.628 284.532C199.036 262.869 204.48 252.17 237.135 238.843Z" fill="#B9C9BE" stroke="#B9C9BE" stroke-width="8" stroke-linecap="round" stroke-linejoin="round"/>
<path d="M375.118 142.974C400.14 169.898 398.706 181.828 386.117 201.054C369.116 187.614 364.399 176.576 375.118 142.974Z" fill="#B9C9BE" stroke="#B9C9BE" stroke-width="8" stroke-linecap="round" stroke-linejoin="round"/>
</svg>
