<svg width="680" height="301" viewBox="0 0 680 301" fill="none" xmlns="http://www.w3.org/2000/svg">
<rect width="680" height="301" fill="white"/>
<path d="M13 184C100.493 269.567 218.5 268.5 281 197C343.5 125.5 396.929 65.4559 518.5 63C586.725 61.1623 620.434 58.0174 604.5 17" stroke="#B9C9BE" stroke-width="8" stroke-linecap="round" stroke-linejoin="round"/>
<path d="M39 274.458C52.837 240.406 64.2565 236.667 87 239.958C81.998 261.045 73.9851 269.982 39 274.458Z" fill="#B9C9BE" stroke="#B9C9BE" stroke-width="8" stroke-linecap="round" stroke-linejoin="round"/>
<path d="M150.123 248.615C154.733 212.149 164.806 205.597 187.63 202.926C188.222 224.59 182.779 235.288 150.123 248.615Z" fill="#B9C9BE" stroke="#B9C9BE" stroke-width="8" stroke-linecap="round" stroke-linejoin="round"/>
<path d="M660.258 75.6176C623.539 77.2591 615.374 68.443 608.871 46.402C630.12 42.1447 641.587 45.6952 660.258 75.6176Z" fill="#B9C9BE" stroke="#B9C9BE" stroke-width="8" stroke-linecap="round" stroke-linejoin="round"/>
<path d="M505.123 113.615C509.733 77.1486 519.806 70.5973 542.63 67.9259C543.222 89.5896 537.779 100.288 505.123 113.615Z" fill="#B9C9BE" stroke="#B9C9BE" stroke-width="8" stroke-linecap="round" stroke-linejoin="round"/>
<path d="M377.704 150.443C371.497 114.215 379.226 105.015 400.285 95.814C407.158 116.367 405.065 128.186 377.704 150.443Z" fill="#B9C9BE" stroke="#B9C9BE" stroke-width="8" stroke-linecap="round" stroke-linejoin="round"/>
<path d="M267.924 268.653C249.635 236.771 253.728 225.473 270.336 209.591C283.86 226.525 285.96 238.343 267.924 268.653Z" fill="#B9C9BE" stroke="#B9C9BE" stroke-width="8" stroke-linecap="round" stroke-linejoin="round"/>
<path d="M449.123 66.6149C453.733 30.1487 463.806 23.5974 486.63 20.926C487.222 42.5897 481.779 53.2878 449.123 66.6149Z" fill="#B9C9BE" stroke="#B9C9BE" stroke-width="8" stroke-linecap="round" stroke-linejoin="round"/>
<path d="M311.14 162.485C286.118 135.56 287.552 123.63 300.141 104.405C317.142 117.845 321.859 128.882 311.14 162.485Z" fill="#B9C9BE" stroke="#B9C9BE" stroke-width="8" stroke-linecap="round" stroke-linejoin="round"/>
</svg>
